{"title":"Ant Man and the Wasp 2018 720p WEB-DL x264 ESub [MW]","magnet":"magnet:?xt=urn:btih:2c06ed97c02bc97ab7dbf06d08879d8195319552&dn=Ant+Man+and+the+Wasp+2018+720p+WEB-DL+x264+ESub+%5BMW%5D&tr=udp%3A%2F%2Ftracker.leechers-paradise.org%3A6969&tr=udp%3A%2F%2Fzer0day.ch%3A1337&tr=udp%3A%2F%2Fopen.demonii.com%3A1337&tr=udp%3A%2F%2Ftracker.coppersurfer.tk%3A6969&tr=udp%3A%2F%2Fexodus.desync.com%3A6969","uploader":"MFreaky","categoryP":"video","categoryS":"hd___movies","size":"1132936095","seeders":"27","leechers":"42","description":" <a href=\"https://pichub.site/image/E9QN4\" rel=\"nofollow\" target=\"_NEW\">https://pichub.site/image/E9QN4</a> <a href=\"\nhttps://pichub.site/image/E9F7t\" rel=\"nofollow\" target=\"_NEW\">\nhttps://pichub.site/image/E9F7t</a> <a href=\"\nhttps://pichub.site/image/E9WZp\" rel=\"nofollow\" target=\"_NEW\">\nhttps://pichub.site/image/E9WZp</a> <a href=\"\nhttps://pichub.site/image/E9jAb\" rel=\"nofollow\" target=\"_NEW\">\nhttps://pichub.site/image/E9jAb</a> <a href=\"\nhttps://pichub.site/image/E9eOy\" rel=\"nofollow\" target=\"_NEW\">\nhttps://pichub.site/image/E9eOy</a> <a href=\"\nhttps://pichub.site/image/E9q60\" rel=\"nofollow\" target=\"_NEW\">\nhttps://pichub.site/image/E9q60</a>\r\n\r\nIMDB <a href=\"\nhttps://www.imdb.com/title/tt5095030/\" rel=\"nofollow\" target=\"_NEW\">\nhttps://www.imdb.com/title/tt5095030/</a>\r\n\r\nVideo\r\nFormat                                   : AVC\r\nFormat/Info                              : Advanced Video Codec\r\nFormat profile                           : High@L4.1\r\nFormat settings                          : CABAC / 5 Ref Frames\r\nFormat settings, CABAC                   : Yes\r\nFormat settings, RefFrames               : 5 frames\r\nCodec ID                                 : V_MPEG4/ISO/AVC\r\nDuration                                 : 1 h 58 min\r\nBit rate                                 : 1 200 kb/s\r\nWidth                                    : 1 280 pixels\r\nHeight                                   : 536 pixels\r\nDisplay aspect ratio                     : 2.40:1\r\nFrame rate mode                          : Constant\r\nFrame rate                               : 23.976 (24000/1001) FPS\r\nColor space                              : YUV\r\nChroma subsampling                       : 4:2:0\r\nBit depth                                : 8 bits\r\nBits/(Pixel*Frame)                       : 0.073\r\nStream size                              : 997 MiB (92%)\r\nWriting library                          : x264 core 155 r2901 7d0ff22\r\n\r\nAudio\r\nFormat                                   : AAC\r\nFormat/Info                              : Advanced Audio Codec\r\nFormat profile                           : LC\r\nCodec ID                                 : A_AAC-2\r\nDuration                                 : 1 h 58 min\r\nBit rate                                 : 96.0 kb/s\r\nChannel(s)                               : 2 channels\r\nChannel positions                        : Front: L R\r\nSampling rate                            : 48.0 kHz\r\nFrame rate                               : 46.875 FPS (1024 SPF)\r\nStream size                              : 81.1 MiB (8%)\r\nLanguage                                 : English","last_updated":"2018-10-02T12:49:33.013Z","parsed":{"xt":"urn:btih:2c06ed97c02bc97ab7dbf06d08879d8195319552","dn":"Ant Man and the Wasp 2018 720p WEB-DL x264 ESub [MW]","tr":["udp://exodus.desync.com:6969","udp://open.demonii.com:1337","udp://tracker.coppersurfer.tk:6969","udp://tracker.leechers-paradise.org:6969","udp://zer0day.ch:1337"],"infoHash":"2c06ed97c02bc97ab7dbf06d08879d8195319552","infoHashBuffer":{"type":"Buffer","data":[44,6,237,151,192,43,201,122,183,219,240,109,8,135,157,129,149,49,149,82]},"name":"Ant Man and the Wasp 2018 720p WEB-DL x264 ESub [MW]","announce":["udp://exodus.desync.com:6969","udp://open.demonii.com:1337","udp://tracker.coppersurfer.tk:6969","udp://tracker.leechers-paradise.org:6969","udp://zer0day.ch:1337"],"urlList":[]}}